:FULLY-SPECIFIED
:DEGREES
79
root -7.984930038452148 17.505399703979492 10.86250114440918 90.00000933466734 -0.0 -0.0
lhipjoint -5.528973971617621e-07 -1.7075472925031877e-06 5.635377011264426e-07
lfemur -25.304988563514527 21.731889504890955 -10.18360714681391
ltibia 53.5231655061608 -26.312369749105123 9.735571496696815
lfoot -4.556483228338975 3.142502802448224 1.6140736991123303
ltoes -1.7977969298840935 0.7080476649671108 0.6447330386607091
rhipjoint -1.4590168159163821e-06 -1.2806604693773908e-06 -1.1362305144035093e-07
rfemur 9.08003299204744 -30.36685712533661 2.046357972508024
rtibia 15.800138295659805 6.636520009870686 -5.3534113445626685
rfoot -9.130350141889279 -4.916237402773186 -3.086341358554383
rtoes 10.066645279919321 3.514326774919494 3.937499896127508
lowerback 7.939047329875872 -3.029761565573878 0.520997385017611
upperback 0.6022483548887306 -3.2259015466481955 1.0543400167949026
thorax -3.8035667166927283 -1.5257830453627488 0.4811114281422637
lowerneck -16.393178008082625 9.74039702534543 -4.133860150802558
upperneck 22.985591217614306 -5.690622906528075 -4.717210813000892
head 10.270139667182448 -3.008833012183313 -2.4072329382963518
lclavicle -1.1905593500282093e-07 5.336085289072462e-08 1.7916324053945998e-07
lhumerus -83.72592733668786 -30.76058679513658 -13.14041909040088
lradius 4.5412875741684354e-07 -2.183484273704391e-06 26.491219960069202
lwrist -8.366491327355951e-07 -11.14360047994296 1.1224337261951947e-06
lhand -23.06878975189423 -6.990828815989104 -15.94873418369531
lfingers -9.414104972780149e-07 5.958838404591767e-07 7.125023250159637
lthumb -44.77920172694008 -33.58928231914068 23.631033848896756
rclavicle -2.343282567121354e-08 -1.5207843073856516e-06 -8.563986979746117e-08
rhumerus -77.85602861303305 28.371465170641574 16.165102623770267
rradius -1.0248440290151637e-06 4.712280504064402e-06 -33.32010114885589
rwrist -8.805383446737962e-08 1.7386654209183543 8.403692112687846e-08
rhand 12.111625261762294 -2.870134281698568 13.134145561648223
rfingers -4.6239122781278693e-07 1.3831930793101032e-07 -7.125021115725521
rthumb -8.511243866272752 16.6595144045781 -11.573114364578272
80
root -8.382081031799316 17.434200286865234 11.237000465393066 90.00000933466734 -0.0 -0.0
lhipjoint -5.528973971617621e-07 -1.7075472925031877e-06 5.635377011264426e-07
lfemur -26.186282749479396 22.074177604956976 -11.471480295954835
ltibia 45.74735713612729 -22.23804579597663 9.958372267422632
lfoot -7.842346365380478 -1.7357393251892386 2.6603051074236643
ltoes -4.034982917282869 1.6211853134204888 1.4193460730923246
rhipjoint -1.4590168159163821e-06 -1.2806604693773908e-06 -1.1362305144035093e-07
rfemur 10.39607554887279 -30.018677987111456 1.8266056005861493
rtibia 16.454456757768686 6.945672727838857 -5.537926343669624
rfoot -11.315085185660822 -4.848151088918737 -3.7099764764774514
rtoes 8.5789259183057 3.044785206983556 3.3236564947098874
lowerback 7.771188600833639 -3.237024723154973 0.513766882729212
upperback 0.482514231603908 -3.0831578500709225 1.0561373170419681
thorax -3.828656562835124 -1.2620657062488543 0.4778465977189976
lowerneck -16.681768868441296 9.226170011981742 -4.016891453718798
upperneck 22.898391900028045 -5.173219001426684 -4.523287655199066
head 10.268894011432568 -2.759295465951482 -2.327039687251232
lclavicle -1.1905593500282093e-07 5.336085289072462e-08 1.7916324053945998e-07
lhumerus -83.11628514194003 -31.349495950658834 -14.955078263241854
lradius -7.902595468178895e-07 -1.8197715105501936e-06 25.819715034461275
lwrist -8.950556175729934e-07 -11.855402667880314 1.196508895615355e-06
lhand -22.597142991590047 -7.0498220136241505 -16.43009518054654
lfingers -9.414104972780149e-07 5.958838404591767e-07 7.125023250159637
lthumb -44.287291502915764 -33.498164180518124 22.917272250441254
rclavicle -2.343282567121354e-08 -1.5207843073856516e-06 -8.563986979746117e-08
rhumerus -78.04482870207053 27.011752091810457 15.769508312326883
rradius -1.513757469761238e-06 4.582091291843493e-06 -34.05569203189876
rwrist -2.0880050144999166e-07 4.184145711019485 1.9450301760150233e-07
rhand 15.957791014534745 -3.212548953707644 11.088298145780657
rfingers -4.6239122781278693e-07 1.3831930793101032e-07 -7.125021115725521
rthumb -4.554565652729494 15.259981322885809 -12.074389631728323
81
root -8.797710418701172 17.407800674438477 11.61620044708252 90.00000933466734 -0.0 -0.0
lhipjoint -5.528973971617621e-07 -1.7075472925031877e-06 5.635377011264426e-07
lfemur -26.24931685778215 21.673035472360247 -12.589308201745476
ltibia 36.6629869739569 -17.349884312673602 9.451370740427171
lfoot -9.158703110907648 -3.9643579074912907 3.1186026898818806
ltoes -0.20616635193035235 0.08000971639160206 0.07491442195119899
rhipjoint -1.4590168159163821e-06 -1.2806604693773908e-06 -1.1362305144035093e-07
rfemur 12.343607514279899 -29.497377459088572 1.514791563440906
rtibia 15.454757827447061 6.474293625572774 -5.254701023790821
rfoot -12.61404800069291 -4.385081338664798 -4.054989822022305
rtoes 6.594372193163006 2.391026180056381 2.5210153521323018
lowerback 7.240504246664805 -3.3710330346706234 0.8089055999852512
upperback 0.2857065194969425 -3.035690383216861 1.4403367385156547
thorax -3.7231109302513863 -1.1022087572627024 0.6669000440860152
lowerneck -16.386259026453402 9.715168867872341 -4.179146866320682
upperneck 22.380576476029162 -5.859319187517282 -4.79538403559898
head 10.05512275078951 -3.0475059701507483 -2.4100546601972135
lclavicle -1.1905593500282093e-07 5.336085289072462e-08 1.7916324053945998e-07
lhumerus -82.46980773699832 -31.566747192684016 -16.91778776275838
lradius -5.121741347979272e-07 -2.6967482446472497e-06 25.052613073682558
lwrist -8.472849584792839e-07 -11.273893168550122 1.1359620246995189e-06
lhand -24.127323931726345 -5.75038748865251 -12.609569104144672
lfingers -9.414104972780149e-07 5.958838404591767e-07 7.125023250159637
lthumb -45.60417246546173 -33.2594217482695 27.454869151951495
rclavicle -2.343282567121354e-08 -1.5207843073856516e-06 -8.563986979746117e-08
rhumerus -78.69085531452703 27.063244887963183 12.831638190855651
rradius -8.606908692394654e-07 2.011586132501642e-06 -36.284191512777156
rwrist -1.0160189057738506e-07 2.00957804415774 9.671316811536666e-08
rhand 15.515594322384365 -3.1282253592053704 11.120724468865292
rfingers -4.6239122781278693e-07 1.3831930793101032e-07 -7.125021115725521
rthumb -4.948974072578234 15.500786472263778 -12.172178303849043
82
root -9.225390434265137 17.385902404785156 12.040900230407715 90.00000933466734 -0.0 -0.0
lhipjoint -5.528973971617621e-07 -1.7075472925031877e-06 5.635377011264426e-07
lfemur -24.97313016231112 22.786007967424656 -10.030116574464445
ltibia 28.541833994203788 -13.01774889290745 8.317625078775816
lfoot -8.647087791127843 -6.296105089184542 3.0490056235603893
ltoes -18.08830118648556 8.075923467069282 5.488141948583047
rhipjoint -1.4590168159163821e-06 -1.2806604693773908e-06 -1.1362305144035093e-07
rfemur 15.392504068256981 -28.520383785115364 -0.08929769977565498
rtibia 13.716344910084587 5.668157987461081 -4.744285682870823
rfoot -12.53869223112745 -4.568550038168272 -4.038274214689169
rtoes 5.40640037903045 1.9848659928538108 2.049811913793935
lowerback 6.5147770105570855 -3.8293506808095263 1.0357884759572076
upperback 0.3910474865294178 -2.9429430310338462 1.7264223068311064
thorax -3.1858956345755503 -0.7345954363321868 0.8083098260627263
lowerneck -16.431816388217385 9.62758022950339 -4.212836347514947
upperneck 22.020048355784624 -5.864877680841203 -4.841025067180298
head 9.934878977998727 -3.024114279790747 -2.415638126400287
lclavicle -1.1905593500282093e-07 5.336085289072462e-08 1.7916324053945998e-07
lhumerus -82.02822234677865 -31.67280295502139 -18.36419643272447
lradius 5.244736705288335e-07 -1.1724801866634599e-07 23.94520718279171
lwrist -9.305280131576691e-07 -12.28330121277692 1.241243880654451e-06
lhand -24.49300201460507 -5.401395984802947 -11.674272881280745
lfingers -9.414104972780149e-07 5.958838404591767e-07 7.125023250159637
lthumb -45.9138566575247 -33.17365506286165 28.567713580968967
rclavicle -2.343282567121354e-08 -1.5207843073856516e-06 -8.563986979746117e-08
rhumerus -79.25641546837159 25.80858524120874 11.959822599911469
rradius -1.170463664106537e-06 2.8631809206853714e-06 -36.7368964509656
rwrist -1.054654630155835e-07 2.087005282032416 1.0031563609754503e-07
rhand 15.511079567342987 -3.284210658149183 11.663298474831828
rfingers -4.6239122781278693e-07 1.3831930793101032e-07 -7.125021115725521
rthumb -5.118889542334287 15.270311984005453 -11.753322929413534
